# xmcd
#
# Track frame offsets: 
#        150
#        16877
#        36440
#        50806
#        65045
#        77830
#        91460
#        102482
#        115279
#        126482
#        136938
#        149952
#        171027
#        184486
#        200813
#        212646
#        230731
#        250920
#        265588
#        279894
#
# Disc length: 4021 seconds
#
# Revision: 0
# Processed by: cddbd v1.5.2PL0 Copyright (c) Steve Scherf et al.
# Submitted via: ExactAudioCopy v1.1
#
DISCID=410fb314
DTITLE=Various Artist - All-Time Country Favourites Tearjerkers Disc 
DTITLE=3
DYEAR=2012
DGENRE=Country
TTITLE0=Mary MacGregor - Torn between two lovers
TTITLE1=Willie Nelson - Last thing I needed first thing this morning
TTITLE2=Alabama - Why lady why
TTITLE3=Charley Pride - A shoulder to cry on
TTITLE4=Conway Twitty - I've already loved you in my mind
TTITLE5=Tammy Wynette - Woman to woman
TTITLE6=Eddy Arnold - I'm gonna lock my heart ( and throw away the key
TTITLE6=)
TTITLE7=Bobby Sykes - I love you so much it hurts
TTITLE8=Patsy Cline - A stranger in my arms
TTITLE9=Jim Reeves - I'm gettin' better
TTITLE10=Jerry Wallace - Sound of goodbye
TTITLE11=Jimmy Webb and Linda Ronstadt - All I know
TTITLE12=Lee Greenwood - Hearts aren't made to break ( they're made to
TTITLE12=love )
TTITLE13=Juice Newton - This old flame
TTITLE14=Merle Haggard - Turnin' off a memory
TTITLE15=Ronnie Milsap - What a difference you've made in my life
TTITLE16=Janie Fricke - Tears in heaven
TTITLE17=Crystal Gayle - Cry me a river
TTITLE18=Juice Newton - Love's been a little bit hard on me
TTITLE19=Kenny Rogers - Have I told you lately
EXTD=
EXTT0=
EXTT1=
EXTT2=
EXTT3=
EXTT4=
EXTT5=
EXTT6=
EXTT7=
EXTT8=
EXTT9=
EXTT10=
EXTT11=
EXTT12=
EXTT13=
EXTT14=
EXTT15=
EXTT16=
EXTT17=
EXTT18=
EXTT19=
PLAYORDER=
